<?xml version="1.0" encoding="utf-8"?>
<!-- Generator: Adobe Illustrator 18.1.1, SVG Export Plug-In . SVG Version: 6.00 Build 0)  -->
<svg version="1.1" id="Слой_1" xmlns="http://www.w3.org/2000/svg" xmlns:xlink="http://www.w3.org/1999/xlink" x="0px" y="0px"
	 viewBox="0 0 289.4 56.9" enable-background="new 0 0 289.4 56.9" xml:space="preserve">
<g>
	<path fill="#FFFFFF" d="M144.5,40c0,4.7-1.9,8.4-5.7,11.3c-5,3.7-13,5.6-23.9,5.6H73.1V1.6H136v15.7h-33.5v5.7h14.8
		c9.2,0,16.2,1.8,21,5.3C142.5,31.5,144.5,35.3,144.5,40z M116.4,39.9c0-1.6-0.7-2.9-2.2-3.9c-1.7-1.3-4-1.9-6.9-1.9h-4.6v11.7h5.1
		c2.6,0,4.7-0.5,6.2-1.6C115.6,43,116.4,41.6,116.4,39.9z"/>
	<path fill="#FFFFFF" d="M219.3,28.5c0,7.8-3.5,14.3-10.6,19.4c-8.3,6-20.1,9-35.6,9c-4.1,0-7.7-0.2-11-0.5c-3.3-0.3-7-0.9-11.2-1.7
		V40.1c2.9,0.8,6,1.4,9.2,1.8c3.2,0.4,6.1,0.7,8.8,0.7c5.3,0,9.6-0.8,12.9-2.4c3.3-1.6,5.5-3.7,6.6-6.5h-26.8V22.5h26.8
		c-1-2.3-2.7-4.1-5-5.4c-3.7-2.2-8.8-3.3-15.3-3.3c-2.3,0-4.9,0.2-7.9,0.5c-3,0.3-6.1,1-9.5,2V1.8l1.7-0.2c4.2-0.6,7.8-1,10.8-1.2
		c3-0.2,6-0.3,9-0.3c12.1,0,22,1.7,29.7,5c6.3,2.7,11,6.5,13.9,11.3C218.1,20,219.3,24.1,219.3,28.5z"/>
	<path fill="#FFFFFF" d="M289.4,54.7c-4,0.8-7.8,1.3-11.4,1.7c-3.7,0.3-7,0.5-10.1,0.5c-14.6,0-26-2.7-34.2-8
		c-7.8-5.1-11.8-11.9-11.8-20.4c0-8,3.5-14.5,10.4-19.5c8.3-6,20.4-9,36.3-9c3.9,0,7.7,0.2,11.3,0.6c1.1,0.1,3.6,0.4,7.5,0.9
		l1.8,0.2v16.5c-2.2-0.6-4.6-1.1-7.3-1.5c-2.7-0.4-5.4-0.6-8.2-0.6c-6.2,0-11.2-0.6-15,2c-3.8,2.6-5.8,5.9-5.8,9.9
		c0,3.6,1.2,6.6,3.7,9c3.6,3.5,9.5,5.2,17.6,5.2c2.1,0,4.1-0.1,6.2-0.4c2.1-0.3,5.1-0.8,9-1.7V54.7z"/>
</g>
<path fill="#FFFFFF" d="M0,1.7v55.3h61.5V1.7H0z M51.3,51.9l-5.5-4.3H1.3l13.1-14h37.8L51.3,51.9z M54.3,33.7l-1.9-2.4H15.9l13.3-14
	h26.6L54.3,33.7z M57.5,17.2l-1.3-2H30.8l9-10.1h18.8L57.5,17.2z"/>
</svg>
